<svg width="197" height="56" viewBox="0 0 197 56" fill="none" xmlns="http://www.w3.org/2000/svg">
<path d="M63.0015 35.8803H59.8207V22.3655H54.9883V19.397H67.8446V22.3655H62.9979V35.8803H63.0015ZM76.16 23.5745C76.6458 23.74 77.1136 23.9775 77.5669 24.2905L76.2428 26.7301C75.6311 26.2983 75.005 26.086 74.3645 26.086C73.9112 26.0932 73.4794 26.2371 73.0728 26.5142C72.6662 26.7913 72.3352 27.1835 72.0797 27.6872C71.8242 28.191 71.6911 28.7775 71.6731 29.4395V35.8803H68.683V23.5853H71.2521L71.4644 25.2404C71.8098 24.6395 72.2596 24.1682 72.8209 23.8335C73.3786 23.4989 74.0155 23.3298 74.728 23.3298C75.1957 23.3298 75.6743 23.409 76.16 23.5745ZM88.3219 23.5745H91.312V35.8695H88.7429L88.545 34.2755C88.0916 34.8296 87.4907 35.2794 86.7387 35.6248C85.9867 35.9702 85.2275 36.1394 84.4611 36.1394C83.4752 36.1394 82.6188 35.9307 81.8848 35.5133C81.1543 35.0959 80.5894 34.4878 80.19 33.6962C79.7906 32.901 79.5927 31.9547 79.5927 30.85V23.5745H82.5972V30.3211C82.5972 31.2926 82.8347 32.041 83.306 32.5736C83.7774 33.1061 84.4395 33.3723 85.2815 33.3723C85.8356 33.3723 86.3465 33.2392 86.8143 32.9729C87.2784 32.7067 87.6491 32.3469 87.9153 31.8935C88.1852 31.4401 88.3219 30.94 88.3219 30.393V23.5745ZM96.5078 35.355C95.5291 34.7756 94.7627 33.9948 94.2014 33.0089C93.6436 32.023 93.363 30.9472 93.363 29.7814C93.363 28.6083 93.6437 27.5253 94.2086 26.5358C94.7699 25.5463 95.5435 24.7619 96.5186 24.1826C97.4973 23.6033 98.584 23.3154 99.7786 23.3154C100.671 23.3154 101.495 23.4665 102.254 23.7688C103.013 24.071 103.683 24.4848 104.262 25.0173L102.761 27.1655C102.34 26.7985 101.902 26.5214 101.448 26.3307C100.995 26.1436 100.491 26.05 99.9333 26.05C99.2856 26.05 98.6847 26.2119 98.1342 26.5358C97.5837 26.8596 97.1447 27.3094 96.8209 27.8779C96.497 28.45 96.3351 29.0833 96.3351 29.7778C96.3351 30.465 96.5006 31.0911 96.8281 31.656C97.1555 32.2209 97.5981 32.6635 98.1486 32.9873C98.6991 33.3112 99.2964 33.4731 99.9369 33.4731C100.491 33.4731 100.998 33.3795 101.455 33.1924C101.912 33.0053 102.351 32.7355 102.776 32.3828L104.266 34.5166C103.693 35.0491 103.024 35.4665 102.258 35.7651C101.491 36.0638 100.671 36.2185 99.793 36.2185C98.5804 36.2221 97.4865 35.9307 96.5078 35.355ZM118.511 35.8803H114.956L111.109 30.6953L109.256 32.6527V35.8803H106.266V19.397H109.256V28.9358L114.056 23.5745H117.87L113.106 28.5939L118.511 35.8803ZM134.739 35.8803H123.933V19.397H127.114V32.8398H134.739V35.8803ZM145.94 23.5853H148.545V35.8803H145.929L145.717 34.4374C145.249 34.9771 144.695 35.4017 144.062 35.7112C143.428 36.0206 142.719 36.1753 141.939 36.1753C140.827 36.1753 139.798 35.8875 138.848 35.3118C137.898 34.7361 137.146 33.9589 136.588 32.9765C136.034 31.9942 135.753 30.9184 135.753 29.7454C135.753 28.5724 136.034 27.4965 136.592 26.5142C137.149 25.5319 137.905 24.7547 138.851 24.179C139.798 23.6033 140.827 23.3154 141.939 23.3154C142.737 23.3154 143.453 23.4737 144.09 23.7832C144.727 24.0962 145.281 24.528 145.749 25.0749L145.94 23.5853ZM143.979 32.8722C144.518 32.5628 144.943 32.1382 145.256 31.5948C145.569 31.0515 145.724 30.4398 145.724 29.7598C145.724 29.0797 145.569 28.4644 145.256 27.9103C144.943 27.3598 144.518 26.928 143.979 26.6149C143.439 26.3019 142.845 26.1472 142.194 26.1472C141.554 26.1472 140.967 26.3055 140.435 26.6149C139.902 26.928 139.485 27.3598 139.179 27.9103C138.873 28.4608 138.722 29.0761 138.722 29.7598C138.722 30.4398 138.873 31.0551 139.179 31.602C139.485 32.149 139.902 32.5771 140.427 32.8794C140.956 33.1852 141.543 33.3364 142.194 33.3364C142.845 33.3364 143.439 33.1816 143.979 32.8722ZM160.48 23.5745H162.956V34.0632C162.956 35.2902 162.722 36.3768 162.258 37.3232C161.793 38.2695 161.088 39.0107 160.145 39.5468C159.203 40.083 158.04 40.3492 156.655 40.3492C155.741 40.3492 154.799 40.2269 153.827 39.9858C152.855 39.7447 152.067 39.4281 151.456 39.0359L152.571 36.7007C153.798 37.3663 155.061 37.6974 156.36 37.6974C157.173 37.6974 157.853 37.5391 158.397 37.2296C158.94 36.9166 159.343 36.492 159.606 35.9558C159.868 35.4197 159.998 34.8152 159.998 34.1424V33.8617C159.545 34.3151 159.023 34.6677 158.433 34.916C157.843 35.1678 157.184 35.2902 156.457 35.2902C155.371 35.2902 154.378 35.0383 153.485 34.5346C152.593 34.0308 151.88 33.3328 151.362 32.4404C150.841 31.5481 150.581 30.5478 150.581 29.4359C150.581 28.3493 150.844 27.3346 151.366 26.3919C151.888 25.4491 152.6 24.6971 153.5 24.1394C154.399 23.5817 155.389 23.301 156.468 23.301C157.249 23.301 157.951 23.4485 158.569 23.7472C159.188 24.0458 159.728 24.4596 160.189 24.9922L160.48 23.5745ZM158.519 32.2317C159.019 31.9439 159.411 31.5481 159.692 31.0515C159.973 30.555 160.113 30.0044 160.113 29.4035C160.113 28.7775 159.973 28.2053 159.692 27.6908C159.411 27.1763 159.019 26.7661 158.512 26.4638C158.008 26.1616 157.443 26.0104 156.817 26.0104C156.191 26.0104 155.63 26.158 155.133 26.4566C154.637 26.7553 154.248 27.1583 153.971 27.6692C153.694 28.1802 153.554 28.7415 153.554 29.3532C153.554 29.9721 153.694 30.5298 153.971 31.0299C154.248 31.5301 154.637 31.9259 155.133 32.2209C155.63 32.516 156.191 32.6599 156.817 32.6599C157.454 32.6671 158.019 32.5232 158.519 32.2317ZM174.754 24.179C175.7 24.7547 176.452 25.5319 177.014 26.5142C177.571 27.4965 177.852 28.5724 177.852 29.7454C177.852 30.9184 177.575 31.9978 177.017 32.9765C176.463 33.9589 175.711 34.7361 174.758 35.3118C173.808 35.8875 172.779 36.1753 171.667 36.1753C170.886 36.1753 170.177 36.0206 169.544 35.7112C168.911 35.4017 168.36 34.9771 167.889 34.4374L167.676 35.8803H165.061V19.397H168.076V24.8302C169.029 23.8227 170.228 23.3154 171.667 23.3154C172.779 23.3154 173.808 23.6033 174.754 24.179ZM173.174 32.8794C173.703 32.5736 174.117 32.149 174.423 31.602C174.729 31.0551 174.88 30.4398 174.88 29.7598C174.88 29.0797 174.729 28.4644 174.423 27.9103C174.117 27.3598 173.7 26.928 173.167 26.6149C172.635 26.3019 172.048 26.1472 171.408 26.1472C170.76 26.1472 170.163 26.3055 169.623 26.6149C169.083 26.928 168.659 27.3598 168.346 27.9103C168.033 28.4608 167.878 29.0761 167.878 29.7598C167.878 30.4398 168.033 31.0515 168.346 31.5948C168.659 32.1382 169.083 32.5664 169.623 32.8722C170.163 33.178 170.756 33.3364 171.408 33.3364C172.059 33.3364 172.646 33.1816 173.174 32.8794ZM182.778 30.7421C182.972 31.6164 183.393 32.3073 184.037 32.8074C184.681 33.3076 185.448 33.5595 186.329 33.5595C187.463 33.5595 188.438 33.1852 189.251 32.4332L190.683 34.5094C190.097 35.0491 189.424 35.4665 188.661 35.7651C187.898 36.0638 187.063 36.2113 186.157 36.2113C184.959 36.2113 183.879 35.9235 182.915 35.3478C181.947 34.772 181.191 33.9912 180.644 33.0089C180.097 32.023 179.824 30.9472 179.824 29.7814C179.824 28.6011 180.083 27.5181 180.598 26.5322C181.112 25.5463 181.832 24.7655 182.749 24.1934C183.667 23.6177 184.699 23.3298 185.84 23.3298C187.099 23.3298 188.186 23.6033 189.1 24.1466C190.014 24.6899 190.712 25.4419 191.187 26.4063C191.666 27.367 191.903 28.468 191.903 29.7022C191.903 30.0764 191.878 30.4254 191.831 30.7457H182.778V30.7421ZM183.94 26.597C183.379 27.0467 182.998 27.6692 182.803 28.468H189.021C188.841 27.6548 188.488 27.0287 187.959 26.5862C187.431 26.1436 186.765 25.9241 185.959 25.9241C185.174 25.9205 184.502 26.1472 183.94 26.597Z" fill="black"/>
<path d="M26.4111 51.1436C13.6304 51.1436 3.26758 40.7808 3.26758 28C3.26758 15.2192 13.6304 4.85645 26.4111 4.85645C39.1919 4.85645 49.5547 15.2192 49.5547 28C49.5547 40.7808 39.1919 51.1436 26.4111 51.1436Z" fill="#E40A13"/>
<path d="M37.957 32.4585C36.4817 32.4585 35.2871 33.6531 35.2871 35.1284C35.2871 36.6036 36.4817 37.7982 37.957 37.7982C39.4322 37.7982 40.6268 36.6036 40.6268 35.1284C40.6304 33.6531 39.4322 32.4585 37.957 32.4585ZM37.9714 36.0207C37.4784 36.0207 37.0826 35.6213 37.0826 35.132C37.0826 34.639 37.482 34.2432 37.9714 34.2432C38.4643 34.2432 38.8601 34.6426 38.8601 35.132C38.8601 35.6213 38.4607 36.0207 37.9714 36.0207Z" fill="white"/>
<path d="M43.0236 32.4477H42.473C42.4622 32.4477 42.4514 32.4513 42.4406 32.4548V32.4441V32.4045V31.6309H42.6457C42.8616 31.6309 43.0379 31.4546 43.0379 31.2387V30.2276C43.0379 30.0045 42.858 29.8246 42.635 29.8246H42.4406V24.4345V23.9271C42.4406 23.6789 42.3651 23.4378 42.2284 23.2327L39.2131 18.7781C38.9468 18.3859 38.5006 18.1484 38.0257 18.1484H33.4847H32.3189C31.9555 18.1484 31.6641 18.4435 31.6641 18.8033V32.4441V32.462V34.2539H34.4455C34.8269 32.6887 36.2374 31.5265 37.9213 31.5265C39.6053 31.5265 41.0158 32.6887 41.3972 34.2539H42.4442V34.2467C42.455 34.2503 42.4658 34.2539 42.4766 34.2539H43.02C43.3474 34.2539 43.6173 33.9877 43.6173 33.6566V33.0342C43.6137 32.7103 43.3474 32.4477 43.0236 32.4477ZM36.5936 26.669H33.9381C33.697 26.669 33.5063 26.4747 33.5063 26.2372C33.5063 25.9997 33.7006 25.8054 33.9381 25.8054H36.5936C36.8347 25.8054 37.0254 25.9997 37.0254 26.2372C37.0254 26.4747 36.8347 26.669 36.5936 26.669ZM39.5909 24.4345H33.4847V19.9871H37.6622L40.0479 23.5853C40.2889 23.9487 40.0263 24.4345 39.5909 24.4345Z" fill="white"/>
<path d="M23.7519 18.2131H17.3364C16.9693 17.1732 15.9906 16.4248 14.8248 16.4248C13.3496 16.4248 12.1514 17.623 12.1514 19.0983C12.1514 20.5735 13.346 21.7717 14.8248 21.7717C15.9834 21.7717 16.9621 21.0305 17.3328 19.9978H22.8416L24.6119 21.7861H29.9552V19.9978H25.5798L23.7519 18.2131ZM14.8392 19.9834C14.3463 19.9834 13.9505 19.584 13.9505 19.0947C13.9505 18.6017 14.3499 18.2059 14.8392 18.2059C15.3322 18.2059 15.728 18.6053 15.728 19.0947C15.728 19.584 15.3286 19.9834 14.8392 19.9834Z" fill="white"/>
<path d="M13.7091 29.7739H15.6161L17.4332 31.5514V31.555H17.4368H22.7729L24.5972 29.7739H27.2599V27.9856H23.6329L21.8626 29.7739H18.3472L16.5769 27.9856H13.6983C13.3277 26.9566 12.3526 26.2153 11.194 26.2153C9.71871 26.2153 8.52051 27.4099 8.52051 28.8888C8.52051 30.364 9.71871 31.5622 11.194 31.5622C12.3634 31.5586 13.3421 30.8102 13.7091 29.7739ZM11.212 29.7775C10.719 29.7775 10.3232 29.3781 10.3232 28.8888C10.3232 28.3958 10.7226 28 11.212 28C11.7049 28 12.1007 28.3994 12.1007 28.8888C12.1043 29.3781 11.7049 29.7775 11.212 29.7775Z" fill="white"/>
<path d="M20.1645 21.8472C18.6893 21.8472 17.4947 23.0418 17.4947 24.517C17.4947 25.2547 17.7933 25.9203 18.2755 26.4025L20.1645 28.2915L22.0536 26.4025C22.3343 26.1218 22.5465 25.78 22.6833 25.3986H28.1705V32.4366H24.6155L22.8452 34.2249H17.3328C16.9621 33.1923 15.987 32.451 14.8248 32.451C13.3496 32.451 12.1514 33.6492 12.1514 35.1245C12.1514 36.5998 13.346 37.798 14.8248 37.798C15.9906 37.798 16.9693 37.0495 17.3364 36.0097H23.7519L25.5762 34.2285H28.1669H29.948H29.9552V32.4402H29.948V25.4022H29.9552V23.6139H22.6725C22.3019 22.5848 21.3196 21.8472 20.1645 21.8472ZM20.1753 25.4094C19.6824 25.4094 19.2866 25.01 19.2866 24.5206C19.2866 24.0313 19.686 23.6319 20.1753 23.6319C20.6683 23.6319 21.0641 24.0313 21.0641 24.5206C21.0641 25.01 20.6683 25.4094 20.1753 25.4094ZM14.8392 36.0204C14.3463 36.0204 13.9505 35.621 13.9505 35.1317C13.9505 34.6387 14.3499 34.2429 14.8392 34.2429C15.3322 34.2429 15.728 34.6423 15.728 35.1317C15.728 35.621 15.3286 36.0204 14.8392 36.0204Z" fill="white"/>
</svg>
